# xmcd
#
# Track frame offsets: 
#        150
#        18894
#        30961
#        52050
#        70079
#        92360
#        117591
#        141530
#        155875
#        172417
#        188220
#        198856
#        215535
#        226565
#        241650
#        259623
#        281417
#        295565
#        308543
#
# Disc length: 4324 seconds
#
# Revision: 0
# Processed by: cddbd v1.4PL0 Copyright (c) Steve Scherf et al.
# Submitted via: ExactAudioCopy v0.90b2
#
DISCID=0510e213
DTITLE=Amazing Rhythm Aces - Concert Classics - Vol. 3
DYEAR=1999
DGENRE=Country
TTITLE0=The End Is Not In Sight (The Cowboy Tune)
TTITLE1=Hit The Nail On The Head
TTITLE2=Anything You Want
TTITLE3=Who's Crying Now
TTITLE4=Love And Happiness
TTITLE5=Just Between You And Me And The Wall, You're A Fool
TTITLE6=Dancing The Night Away
TTITLE7=Emma-Jean
TTITLE8=Amazing Grace (Used To Be Her Favorite Song
TTITLE9=Out Of The Snow
TTITLE10=If I Just Knew What To Say
TTITLE11=These Dreams Of Losing You
TTITLE12=I Pity The Mother And Father (When The Kids Move Away)
TTITLE13=Typical American Boy
TTITLE14=Third Rate Romance
TTITLE15=Ella B
TTITLE16=I'll Be Gone
TTITLE17=Who Will The Next Fool Be
TTITLE18=Fool For The Woman
EXTD=
EXTT0=
EXTT1=
EXTT2=
EXTT3=
EXTT4=
EXTT5=
EXTT6=
EXTT7=
EXTT8=
EXTT9=
EXTT10=
EXTT11=
EXTT12=
EXTT13=
EXTT14=
EXTT15=
EXTT16=
EXTT17=
EXTT18=
PLAYORDER=
